<?xml version="1.0" standalone="no"?>
<!DOCTYPE svg PUBLIC "-//W3C//DTD SVG 20010904//EN"
 "http://www.w3.org/TR/2001/REC-SVG-20010904/DTD/svg10.dtd">
<svg version="1.0" xmlns="http://www.w3.org/2000/svg"
 width="45.000000pt" height="44.000000pt" viewBox="0 0 45.000000 44.000000"
 preserveAspectRatio="xMidYMid meet">

<g transform="translate(0.000000,44.000000) scale(0.100000,-0.100000)"
fill="#000000" stroke="none">
<path d="M40 215 l1 -195 189 0 190 0 -2 43 -1 42 -4 -37 c-3 -29 -9 -38 -23
-38 -13 0 -20 9 -23 28 l-4 27 -2 -27 c0 -16 -5 -28 -11 -28 -5 0 -10 12 -10
28 0 15 -3 22 -8 15 -4 -6 -23 -13 -42 -16 l-35 -4 38 -1 c20 -1 37 -6 37 -12
0 -15 -147 -13 -153 3 -4 10 -6 10 -6 0 -1 -17 -38 -17 -44 0 -4 9 -6 9 -6 0
-1 -8 -15 -13 -36 -13 -30 0 -35 3 -35 23 0 18 2 19 10 7 8 -12 10 -9 10 12 0
21 5 27 28 31 26 4 25 4 -5 6 -22 1 -33 -4 -36 -16 -3 -11 -5 -7 -6 10 -1 26
1 27 44 27 41 0 45 -2 45 -25 0 -20 -5 -25 -25 -25 -17 0 -25 -5 -25 -17 0
-12 3 -14 8 -7 9 16 95 16 104 1 5 -8 8 -7 8 5 0 11 -10 18 -27 20 -25 3 -28
7 -28 38 l0 35 65 6 65 6 -52 1 -53 2 0 35 0 35 50 0 c38 0 50 -4 50 -15 0 -8
8 -15 18 -14 10 0 12 3 5 6 -7 2 -13 17 -14 31 0 15 -3 21 -6 15 -2 -7 -20
-13 -39 -13 -27 0 -34 4 -34 20 0 11 6 20 13 20 8 0 7 4 -3 10 -13 9 -13 11 0
20 13 8 12 10 -2 10 -14 0 -18 -9 -18 -40 0 -22 -4 -40 -10 -40 -5 0 -10 23
-10 50 0 34 4 50 13 50 7 0 18 10 26 21 11 19 11 21 -4 16 -9 -4 -14 -3 -10 3
10 16 72 12 78 -4 8 -21 -16 -26 -31 -7 -11 14 -11 14 -6 -1 3 -10 1 -18 -5
-18 -6 0 -11 -3 -11 -7 0 -5 22 -6 50 -5 32 3 50 0 50 -7 0 -6 -18 -11 -40
-11 -39 0 -40 -1 -39 -32 2 -31 2 -31 6 -5 4 25 8 27 54 27 27 0 49 -4 49 -10
0 -5 -7 -10 -16 -10 -11 0 -15 -6 -11 -20 6 -22 -18 -29 -26 -7 -3 7 -6 5 -6
-5 -1 -9 6 -21 14 -25 13 -8 13 -11 -1 -31 -17 -25 -54 -30 -54 -7 0 10 -10
15 -30 15 -22 0 -30 -5 -29 -17 0 -11 3 -13 6 -5 7 17 40 15 47 -3 3 -9 19
-15 41 -15 33 0 35 -2 35 -34 0 -19 -6 -37 -13 -39 -6 -3 3 -6 21 -6 30 -1 32
1 31 32 -2 30 -2 30 -6 5 -6 -40 -23 -34 -23 7 0 31 3 35 25 35 22 0 25 -4 25
-37 1 -36 2 -37 15 -19 12 15 15 51 15 153 l0 133 -190 0 -190 0 0 -195z m55
137 c24 3 31 0 28 -9 -3 -7 -18 -13 -34 -13 -21 0 -29 -5 -28 -17 0 -11 3 -13
6 -5 6 14 63 17 63 2 0 -5 -9 -10 -20 -10 -13 0 -20 -6 -19 -17 0 -11 3 -13 6
-5 8 19 23 14 23 -8 0 -11 -5 -20 -11 -20 -6 0 -3 -7 5 -16 9 -8 16 -21 16
-27 1 -28 20 21 20 51 0 17 5 32 10 32 6 0 10 -22 10 -50 0 -47 -2 -50 -25
-50 -17 0 -25 -5 -24 -17 0 -11 3 -13 6 -5 2 6 13 12 24 12 18 0 18 -1 -1 -20
-35 -35 -53 -26 -49 23 3 36 1 43 -12 40 -9 -3 -19 3 -22 11 -4 9 -2 16 2 16
5 0 12 -6 14 -12 3 -8 6 -6 6 5 1 11 -6 17 -19 17 -18 0 -20 6 -19 73 1 39 4
59 6 43 4 -25 8 -28 38 -24z m-18 16 c-3 -7 -5 -2 -5 12 0 14 2 19 5 13 2 -7
2 -19 0 -25z m245 10 c-2 -10 -6 -18 -8 -18 -2 0 -8 8 -13 18 -7 14 -6 18 8
18 12 0 17 -6 13 -18z m88 -27 c0 -35 -4 -51 -16 -55 -13 -5 -14 1 -8 40 l7
47 -31 -5 c-22 -3 -29 -1 -25 9 3 7 20 13 39 13 l34 0 0 -49z m-222 12 c-12
-3 -18 -14 -18 -34 0 -20 -5 -29 -16 -29 -12 0 -15 6 -10 23 3 12 6 28 6 35 0
7 12 12 28 11 16 -1 20 -3 10 -6z m176 -18 c-4 -8 -10 -15 -15 -15 -5 0 -9 7
-9 15 0 8 7 15 15 15 9 0 12 -6 9 -15z m33 -75 c-6 -8 -12 -17 -14 -19 -1 -1
-12 6 -24 17 l-21 21 35 -2 c29 -2 33 -4 24 -17z m-17 -30 c10 0 22 -4 25 -10
4 -6 -8 -10 -29 -10 -23 0 -36 5 -36 13 0 18 14 31 18 18 2 -6 12 -11 22 -11z
m-292 -63 c2 -26 -1 -33 -17 -33 -15 0 -17 3 -7 19 8 15 8 21 -2 24 -15 6 -6
23 12 23 6 0 13 -15 14 -33z m317 23 c-3 -5 -24 -10 -46 -10 -24 0 -38 4 -34
10 3 6 24 10 46 10 24 0 38 -4 34 -10z"/>
<path d="M213 133 c31 -4 37 -8 37 -28 0 -13 -6 -26 -12 -28 -8 -3 -6 -6 5 -6
12 -1 17 7 17 28 0 25 5 30 28 34 15 2 -4 4 -43 4 -38 0 -53 -2 -32 -4z"/>
<path d="M193 103 c9 -2 23 -2 30 0 6 3 -1 5 -18 5 -16 0 -22 -2 -12 -5z"/>
<path d="M281 88 c-1 -10 6 -18 14 -18 8 0 15 5 15 11 0 5 -4 8 -9 5 -5 -4
-12 0 -14 6 -3 8 -6 6 -6 -4z"/>
</g>
</svg>
